<?xml version="1.0" encoding="UTF-8"?>
<svg width="100" height="100" viewBox="0 0 100 100" xmlns="http://www.w3.org/2000/svg">
  <!-- Background circle -->
  <circle cx="50" cy="50" r="45" fill="#2563eb" />
  
  <!-- Inner glow effect -->
  <circle cx="50" cy="50" r="40" fill="#3b82f6" />
  
  <!-- G letter -->
  <path d="M38 35c-8 0-14 6-14 15s6 15 14 15c4 0 8-2 10-5l-4-4c-1 2-3 3-6 3-5 0-8-4-8-9s3-9 8-9c3 0 5 1 6 3h-7v6h13v-3c0-7-6-12-12-12z" fill="white"/>
  
  <!-- A stylized AI brain symbol -->
  <path d="M65 30c-8 0-13 6-13 13 0 2 1 5 2 7l-4 4 3 3 4-4c2 1 5 2 8 2 8 0 13-6 13-13s-5-12-13-12zm0 6c4 0 7 3 7 7s-3 7-7 7-7-3-7-7 3-7 7-7z" fill="white"/>
  
  <!-- Connection lines representing neural networks -->
  <path d="M50 65c0 0 15-15 30-15" stroke="white" stroke-width="2" stroke-linecap="round" fill="none"/>
  <path d="M20 65c0 0 15-15 30-15" stroke="white" stroke-width="2" stroke-linecap="round" fill="none"/>
  
  <!-- Small nodes -->
  <circle cx="35" cy="55" r="2" fill="white"/>
  <circle cx="65" cy="55" r="2" fill="white"/>
  <circle cx="50" cy="65" r="2" fill="white"/>
  <circle cx="20" cy="65" r="2" fill="white"/>
  <circle cx="80" cy="65" r="2" fill="white"/>
</svg>