<?xml version="1.0" encoding="UTF-8"?>
<svg width="100" height="100" viewBox="0 0 100 100" xmlns="http://www.w3.org/2000/svg">
  <defs>
    <linearGradient id="gradient" x1="0%" y1="0%" x2="100%" y2="100%">
      <stop offset="0%" stop-color="#4285F4"/>
      <stop offset="100%" stop-color="#8ab4f8"/>
    </linearGradient>
  </defs>
  <circle cx="50" cy="50" r="45" fill="url(#gradient)"/>
  <g fill="white">
    <!-- Robot head and features -->
    <rect x="30" y="25" width="40" height="35" rx="5" ry="5"/>
    <rect x="35" y="60" width="30" height="5" rx="2" ry="2"/>
    
    <!-- Antenna -->
    <rect x="48" y="15" width="4" height="10" rx="2" ry="2"/>
    <circle cx="50" cy="12" r="5"/>
    
    <!-- Eyes -->
    <circle cx="38" cy="40" r="6"/>
    <circle cx="62" cy="40" r="6"/>
    
    <!-- Mouth -->
    <rect x="35" y="52" width="30" height="3" rx="1.5" ry="1.5"/>
    
    <!-- Body -->
    <rect x="40" y="65" width="20" height="15" rx="3" ry="3"/>
    
    <!-- Arms -->
    <rect x="20" y="65" width="20" height="5" rx="2" ry="2"/>
    <rect x="60" y="65" width="20" height="5" rx="2" ry="2"/>
  </g>
</svg>